<svg width="1070" height="2147" viewBox="0 0 1070 2147" fill="none" xmlns="http://www.w3.org/2000/svg">
<path d="M850.912 0C985.773 1.48092e-05 1070 112.303 1070 230.846V1004.49L1069.99 1006.39C1068.46 1167.22 873.379 1204.76 850.428 1361.85C850.428 1513.88 845.394 1794.45 845.394 1987.14C845.394 2071.37 751.807 2146.24 676.938 2146.24H389.941C318.192 2146.24 227.726 2071.37 227.726 1987.14C227.726 1794.45 221.487 1513.88 221.487 1361.85C196.628 1204.76 1.54113 1161.47 0.00878906 1006.32L0 1004.49V243.323C0.000158651 106.064 87.3469 0.000192642 233.427 0H850.912Z" fill="#F7FDFF"/>
</svg>
